<?xml version="1.0" encoding="UTF-8" standalone="no"?>
<!-- Created with Inkscape (http://www.inkscape.org/) -->

<svg
   xmlns:dc="http://purl.org/dc/elements/1.1/"
   xmlns:cc="http://creativecommons.org/ns#"
   xmlns:rdf="http://www.w3.org/1999/02/22-rdf-syntax-ns#"
   xmlns:svg="http://www.w3.org/2000/svg"
   xmlns="http://www.w3.org/2000/svg"
   version="1.1"
   width="411.61896"
   height="219.84676"
   viewBox="0 0 116.16802 62.045642"
   id="svg8">
  <defs
     id="defs2" />
  <metadata
     id="metadata5">
    <rdf:RDF>
      <cc:Work
         rdf:about="">
        <dc:format>image/svg+xml</dc:format>
        <dc:type
           rdf:resource="http://purl.org/dc/dcmitype/StillImage" />
        <dc:title></dc:title>
      </cc:Work>
    </rdf:RDF>
  </metadata>
  <g
     transform="translate(-23.150765,-104.18055)"
     id="layer1">
    <g
       transform="matrix(0.95751525,-0.2305558,0.27966757,0.97702989,0,0)"
       id="text12"
       style="font-size:50.79999924px;font-style:normal;font-variant:normal;font-weight:normal;font-stretch:normal;line-height:1.25;letter-spacing:0px;word-spacing:0px;fill:#000000;fill-opacity:1;stroke:none;font-family:Yesteryear;-inkscape-font-specification:Yesteryear">
      <path
         d="m 18.987352,128.73996 c -3.7e-5,0.79378 -0.31423,1.67435 -0.942578,2.6417 -0.628421,0.96741 -1.434573,1.94306 -2.418457,2.92696 -0.983952,0.98394 -2.079492,1.94305 -3.286621,2.87734 -1.207191,0.93433 -2.3978148,1.77356 -3.5718753,2.51767 -0.9756769,0.61187 -1.91412,1.16998 -2.815332,1.67432 -0.9012601,0.50438 -1.7446186,0.9798 -2.5300781,1.42627 -0.7855024,0.4465 -1.5007035,0.87232 -2.1456054,1.27744 -0.64494059,0.40516 -1.2071796,0.81444 -1.68671872,1.22783 1.19060611,0.21499 2.24893832,0.42583 3.17499992,0.63252 0.9260199,0.20672 1.6618915,0.45064 2.2076172,0.73174 0.3968515,0.28114 0.8019943,0.69868 1.2154297,1.25264 0.4133867,0.55398 0.7854566,1.12036 1.1162109,1.69912 0.3307034,0.57879 0.5994206,1.10382 0.8061523,1.5751 0.2066793,0.4713 0.3100321,0.75655 0.3100586,0.85576 -2.65e-5,0.72761 -0.1860615,1.49656 -0.5581055,2.30684 -0.3720959,0.81029 -0.8847255,1.61644 -1.5378906,2.41845 -0.6532138,0.80202 -1.4304266,1.5751 -2.3316406,2.31924 -0.9012581,0.74414 -1.8851764,1.418 -2.9517577,2.02158 -1.06661964,0.60358 -2.1952318,1.11621 -3.3858398,1.53789 -1.1906396,0.42168 -2.3977998,0.69867 -3.6214843,0.83096 -0.5457147,-0.44649 -1.0748809,-0.92191 -1.5875,-1.42627 -0.5126402,-0.50436 -0.9756606,-0.97565 -1.3890625,-1.41387 -0.4134202,-0.43821 -0.7606855,-0.81855 -1.0417969,-1.14101 -0.2811272,-0.32246 -0.4547602,-0.52503 -0.5208982,-0.60772 -0.59532,0.92605 -1.1989,1.7694 -1.810742,2.53008 -0.611854,0.76068 -1.219569,1.40146 -1.823145,1.92236 -0.603584,0.5209 -1.207164,0.91777 -1.810742,1.19063 -0.603582,0.27285 -1.203028,0.39274 -1.79834,0.35967 -0.248047,-0.0165 -0.504362,-0.11163 -0.768945,-0.28526 -0.264583,-0.17363 -0.520898,-0.39274 -0.768945,-0.65732 -0.248046,-0.26459 -0.48369,-0.55398 -0.706934,-0.86817 -0.22324,-0.31419 -0.421677,-0.61598 -0.595312,-0.90537 -0.173631,-0.28939 -0.310056,-0.55397 -0.409278,-0.79375 -0.09922,-0.23978 -0.148825,-0.40927 -0.148828,-0.50849 3e-6,-1.73633 0.367939,-3.67109 1.103809,-5.8043 0.735873,-2.13319 1.740462,-4.34081 3.013769,-6.62285 1.273305,-2.28202 2.778121,-4.56818 4.514453,-6.8585 1.736321,-2.29027 3.6049388,-4.46068 5.6058595,-6.51123 0.6614464,-2.38122 1.1988808,-4.69632 1.6123046,-6.94531 0.4133983,-2.24892 0.6366402,-4.30771 0.6697266,-6.17637 1.0913916,0.57882 1.967823,1.14519 2.6292968,1.69912 0.6614416,0.55401 1.18233948,1.04597 1.56269529,1.47588 0.42992982,0.51267 0.74412221,1.00049 0.94257811,1.46348 0.0992,0.29769 0.14880937,0.71937 0.14882813,1.26504 -1.876e-5,0.0993 -0.004153,0.2026 -0.0124024,0.31006 -0.008287,0.10752 -0.0206893,0.21914 -0.037207,0.33486 2.31508317,-1.65361 4.61778267,-2.97239 6.90810537,-3.95635 2.2902716,-0.98388 4.485484,-1.47584 6.585644,-1.47588 0.264551,4e-5 0.570475,0.0993 0.917774,0.29766 0.347232,0.19848 0.698631,0.46306 1.054199,0.79375 0.355499,0.33077 0.711033,0.6987 1.066602,1.10381 0.355498,0.40518 0.66969,0.81859 0.942578,1.24023 0.272815,0.42172 0.491923,0.82686 0.657324,1.21543 0.165328,0.38864 0.24801,0.72351 0.248047,1.00459 z m -23.4900389,17.85938 c -0.876445,2.24897 -1.814888,4.42764 -2.815332,6.53603 -1.0004655,2.10841 -2.0463954,4.01423 -3.1377931,5.71748 1.8851469,-0.16536 3.6380097,-0.44234 5.2585939,-0.83095 1.6205583,-0.38861 3.0840334,-0.90537 4.39042959,-1.5503 1.30636159,-0.64491 2.45151021,-1.43866 3.43544921,-2.38125 0.9838975,-0.94257 1.790049,-2.05051 2.4184569,-3.32382 -0.3307519,-0.1819 -0.6904195,-0.34726 -1.0790038,-0.4961 -0.3886285,-0.14882 -0.7979054,-0.28111 -1.2278321,-0.39687 -0.4299683,-0.11575 -0.8640499,-0.2191 -1.302246,-0.31006 -0.43823526,-0.0909 -0.86404863,-0.17776 -1.27744142,-0.26045 -0.95913186,-0.16535 -1.95131838,-0.29765 -2.97656248,-0.39688 -0.2315254,-0.0331 -0.5002426,-0.2811 -0.8061523,-0.74414 -0.3059386,-0.463 -0.5994605,-0.9839 -0.8805664,-1.56269 z m 3.8695312,-11.78223 c -0.28113697,1.02529 -0.5911953,2.09602 -0.9301758,3.21221 -0.3390136,1.11623 -0.7069494,2.26965 -1.1038085,3.46025 1.4882643,-1.20714 3.08816498,-2.34815 4.7997069,-3.42304 1.7115015,-1.07485 3.4106209,-2.17039 5.0973632,-3.28663 1.6866917,-1.11618 3.2824579,-2.3068 4.7873049,-3.57187 1.504786,-1.26501 2.794628,-2.69954 3.869531,-4.30361 0.06611,-0.0827 0.09505,-0.18187 0.08682,-0.29766 -0.0083,-0.11572 -0.04551,-0.22734 -0.111621,-0.33486 -0.06618,-0.10746 -0.152996,-0.19841 -0.260449,-0.27285 -0.107521,-0.0744 -0.235678,-0.11159 -0.384473,-0.11163 -0.926074,4e-5 -1.98854,0.21915 -3.187402,0.65733 -1.198922,0.43825 -2.4846304,1.0501 -3.8571288,1.83555 -1.3725509,0.78551 -2.8070872,1.72809 -4.3036132,2.82773 -1.4965699,1.0997 -2.99725199,2.30273 -4.5020507,3.60908 z m -17.0160153,25.3752 c 0.148827,0 0.367935,-0.18604 0.657324,-0.55811 0.289387,-0.37207 0.628384,-0.89297 1.016992,-1.56269 0.388605,-0.66973 0.818552,-1.48001 1.289844,-2.43086 0.471285,-0.95084 0.963244,-2.00091 1.475879,-3.1502 0.512625,-1.14927 1.037657,-2.38537 1.575098,-3.7083 0.537427,-1.3229 1.070728,-2.69543 1.599902,-4.11758 -0.975658,1.24025 -1.893431,2.49289 -2.75332,3.75791 -0.859901,1.26505 -1.632979,2.52596 -2.319239,3.78272 -0.686265,1.25678 -1.273309,2.50114 -1.761132,3.7331 -0.487827,1.23197 -0.847494,2.42673 -1.079004,3.58428 -0.04961,0.23151 -0.03721,0.40101 0.03721,0.5085 0.07441,0.10748 0.16123,0.16123 0.260449,0.16123 z"
         id="path2998"
         style="font-family:Yesteryear;-inkscape-font-specification:Yesteryear" />
      <path
         d="m 26.75122,158.50559 c -1.3e-5,0.0992 0.0496,0.14883 0.148828,0.14883 0.148815,0 0.396862,-0.10749 0.744141,-0.32247 0.347251,-0.21497 0.744126,-0.48782 1.190625,-0.81855 0.446469,-0.33073 0.921892,-0.7028 1.426269,-1.11621 0.504346,-0.41341 0.988036,-0.81855 1.451075,-1.21543 0.463002,-0.39687 0.880547,-0.76067 1.252636,-1.09141 0.372051,-0.33072 0.657305,-0.58703 0.855762,-0.76894 0.148808,0.14883 0.334843,0.34727 0.558105,0.59531 0.223222,0.24805 0.425793,0.4713 0.607715,0.66973 -0.396895,0.36381 -0.872318,0.80615 -1.426269,1.32705 -0.553991,0.5209 -1.149303,1.06247 -1.785938,1.62471 -0.636671,0.56224 -1.293994,1.12034 -1.971972,1.67431 -0.67801,0.55397 -1.339468,1.04593 -1.984375,1.47588 -0.644935,0.42995 -1.256784,0.78135 -1.835547,1.0542 -0.578788,0.27285 -1.083149,0.40928 -1.513086,0.40928 -0.297667,0 -0.624261,-0.0579 -0.979785,-0.17364 -0.355543,-0.11575 -0.682138,-0.27698 -0.979785,-0.48369 -0.297665,-0.2067 -0.545711,-0.45062 -0.744141,-0.73174 -0.198445,-0.28112 -0.297664,-0.59531 -0.297656,-0.94257 -8e-6,-0.13229 -0.0041,-0.29352 -0.0124,-0.4837 -0.0083,-0.19016 0.0041,-0.43821 0.03721,-0.74414 0.03307,-0.30592 0.09921,-0.67799 0.198438,-1.11621 0.09921,-0.43821 0.248039,-0.97978 0.446484,-1.6247 -0.54571,0.57878 -1.186498,1.18236 -1.922363,1.81074 -0.735878,0.62839 -1.508956,1.2237 -2.319238,1.78594 -0.81029,0.56224 -1.62471,1.07073 -2.443262,1.52548 -0.818555,0.45476 -1.575097,0.79789 -2.269629,1.0294 -0.08268,0.0331 -0.148827,0.0496 -0.198437,0.0496 -0.04961,0 -0.09922,0 -0.148828,0 -0.165364,0 -0.384471,-0.0827 -0.657325,-0.24805 -0.272849,-0.16536 -0.541566,-0.38447 -0.806152,-0.65732 -0.26458,-0.27285 -0.491956,-0.58291 -0.682129,-0.93018 -0.190166,-0.34726 -0.28525,-0.69453 -0.285254,-1.0418 4e-6,-0.0992 0.04961,-0.42994 0.148828,-0.99218 0.09922,-0.56224 0.334867,-1.27744 0.706934,-2.14561 0.372073,-0.86816 0.921909,-1.84381 1.649512,-2.92695 0.727604,-1.08313 1.719791,-2.19521 2.976562,-3.33623 0.644919,-0.57877 1.33945,-1.12447 2.083594,-1.63711 0.628381,-0.42994 1.347716,-0.86815 2.158008,-1.31465 0.810279,-0.44647 1.661906,-0.802 2.554882,-1.0666 0.03307,1e-5 0.062,-0.008 0.08682,-0.0248 0.0248,-0.0165 0.062,-0.008 0.111621,0.0248 0.198428,0.0662 0.434073,0.16951 0.706934,0.31006 0.272841,0.14057 0.545692,0.2894 0.818554,0.44648 0.272841,0.15711 0.512619,0.31421 0.719336,0.47129 0.206694,0.15711 0.34312,0.28527 0.409277,0.38447 0.01653,0.0331 0.01653,0.0579 0,0.0744 l -0.04961,0.0496 c -0.744151,0.39688 -1.44695,0.83923 -2.108398,1.32705 -0.661467,0.48783 -1.248511,0.94672 -1.761133,1.37666 -0.59532,0.51264 -1.14929,1.017 -1.661914,1.51308 -1.207166,1.19064 -2.042257,2.22003 -2.505274,3.08819 -0.463023,0.86817 -0.694534,1.49242 -0.694531,1.87275 -3e-6,0.28112 0.115753,0.42168 0.347266,0.42168 0.231507,0 0.525029,-0.0951 0.880566,-0.28525 0.35553,-0.19017 0.756538,-0.44648 1.203028,-0.76895 0.446478,-0.32245 0.938437,-0.70279 1.475878,-1.14101 0.537428,-0.43821 1.095533,-0.8971 1.674317,-1.37666 0.512621,-0.41341 1.008714,-0.85989 1.488281,-1.33946 0.413401,-0.39686 0.843349,-0.85162 1.289844,-1.36426 0.446473,-0.51262 0.826811,-1.03351 1.141015,-1.56269 -1.2e-5,-0.0165 0.0083,-0.0331 0.02481,-0.0496 0.01652,-0.0165 0.04133,-0.0165 0.07441,0 0.181889,0.1323 0.388594,0.35141 0.620117,0.65732 0.231497,0.30594 0.446471,0.6408 0.644922,1.00459 0.198424,0.36382 0.367922,0.71522 0.508496,1.0542 0.140546,0.33901 0.210826,0.59946 0.21084,0.78135 -0.380352,0.77722 -0.673874,1.48415 -0.880566,2.1208 -0.206719,0.63666 -0.363816,1.19477 -0.471289,1.67432 -0.1075,0.47956 -0.173646,0.88884 -0.198438,1.22783 -0.02482,0.339 -0.03722,0.59945 -0.03721,0.78135 z"
         id="path3000"
         style="font-family:Yesteryear;-inkscape-font-specification:Yesteryear" />
      <path
         d="m 33.349266,153.84231 c 0.38034,-0.3638 0.814422,-0.77721 1.302247,-1.24024 0.487825,-0.46301 0.97565,-0.96737 1.463476,-1.51308 0.487824,-0.5457 0.942576,-1.13274 1.364258,-1.76114 0.421677,-0.62837 0.75654,-1.30636 1.00459,-2.03398 0.06614,-0.38033 0.169495,-0.78133 0.310058,-1.20303 0.140556,-0.42166 0.297652,-0.80614 0.471289,-1.15342 0.173629,-0.34725 0.343127,-0.63663 0.508496,-0.86816 0.16536,-0.23149 0.314188,-0.34725 0.446485,-0.34727 0.198432,0.11578 0.496088,0.33488 0.892969,0.65733 0.396868,0.32248 0.793743,0.66561 1.190625,1.02939 0.396867,0.36382 0.748266,0.69868 1.054199,1.00459 0.305916,0.30594 0.458878,0.49198 0.458886,0.55811 -0.198446,0.76069 -0.29353,1.44695 -0.285253,2.05879 0.0083,0.61186 0.05787,1.21544 0.148828,1.81074 0.09094,0.59532 0.19016,1.22784 0.297656,1.89756 0.107478,0.66973 0.161221,1.44281 0.16123,2.31924 -9e-6,0.52917 -0.08682,1.13688 -0.260449,1.82314 -0.173641,0.68627 -0.475431,1.30225 -0.905371,1.84795 0.843351,-0.49609 1.678441,-1.0542 2.505273,-1.67432 0.826812,-0.62011 1.562684,-1.20302 2.207618,-1.74873 0.760663,-0.64491 1.488267,-1.28983 2.182812,-1.93476 l 1.116211,1.21543 c -0.545719,0.51263 -1.136896,1.05834 -1.773535,1.63711 -0.636667,0.57878 -1.298125,1.14928 -1.984375,1.71152 -0.686275,0.56224 -1.384939,1.09968 -2.095996,1.6123 -0.711077,0.51264 -1.413876,0.96739 -2.108399,1.36426 -0.694538,0.39688 -1.364264,0.71107 -2.009179,0.94258 -0.644927,0.23151 -1.248508,0.34726 -1.810742,0.34727 -0.479561,-1e-5 -1.008728,-0.11576 -1.5875,-0.34727 -0.578778,-0.23151 -1.124481,-0.51263 -1.63711,-0.84336 -0.51263,-0.33073 -0.959114,-0.67799 -1.339453,-1.0418 -0.380338,-0.3638 -0.60358,-0.66972 -0.669726,-0.91777 1e-6,-0.0331 0.03307,-0.10335 0.09922,-0.21084 0.06615,-0.10748 0.144695,-0.2191 0.235645,-0.33486 0.09095,-0.11576 0.181901,-0.21911 0.272851,-0.31006 0.09095,-0.0909 0.161231,-0.13642 0.21084,-0.13643 0.09922,1e-5 0.297656,0.0744 0.595313,0.22325 0.297655,0.14883 0.793749,0.22324 1.488281,0.22324 0.380336,0 0.706931,-0.0992 0.979785,-0.29766 0.272849,-0.19843 0.500225,-0.46302 0.682129,-0.79375 0.181897,-0.33072 0.314189,-0.71106 0.396875,-1.14101 0.08268,-0.42995 0.124019,-0.8847 0.124023,-1.36426 -4e-6,-0.69453 -0.03308,-1.36839 -0.09922,-2.02158 -0.06615,-0.65319 -0.140564,-1.2857 -0.223242,-1.89756 -0.281124,0.33074 -0.603584,0.678 -0.967383,1.04179 -0.363805,0.36381 -0.731741,0.72348 -1.103809,1.07901 -0.372071,0.35554 -0.744141,0.7028 -1.116211,1.0418 -0.37207,0.339 -0.706933,0.64079 -1.00459,0.90537 l -1.190625,-1.21543 z"
         id="path3002"
         style="font-family:Yesteryear;-inkscape-font-specification:Yesteryear" />
      <path
         d="m 63.412549,158.20793 c 0.264571,0 0.599434,-0.0992 1.00459,-0.29765 0.405129,-0.19844 0.847479,-0.45062 1.327051,-0.75655 0.479542,-0.30592 0.971501,-0.64905 1.475878,-1.02939 0.504346,-0.38034 0.983903,-0.75241 1.438672,-1.11621 0.454735,-0.3638 0.864012,-0.7028 1.227832,-1.017 0.363783,-0.31418 0.644903,-0.55396 0.84336,-0.71933 0.148808,0.14883 0.326575,0.339 0.5333,0.57051 0.206686,0.23151 0.400989,0.44649 0.582911,0.64492 -0.363823,0.36381 -0.818575,0.80616 -1.364258,1.32705 -0.545722,0.5209 -1.1369,1.0542 -1.773535,1.5999 -0.636671,0.54571 -1.298129,1.09141 -1.984375,1.63711 -0.686278,0.54571 -1.356004,1.03353 -2.00918,1.46348 -0.653203,0.42995 -1.260917,0.77721 -1.823144,1.04179 -0.562251,0.26459 -1.03354,0.39688 -1.413868,0.39688 -0.644931,0 -1.227841,-0.12816 -1.74873,-0.38447 -0.520907,-0.25632 -0.992195,-0.58705 -1.413867,-0.99219 -0.421687,-0.40514 -0.814427,-0.86816 -1.178223,-1.38906 -0.363808,-0.5209 -0.702805,-1.0542 -1.016992,-1.59991 -0.281125,0.36381 -0.566378,0.76482 -0.855762,1.20303 -0.289392,0.43822 -0.558109,0.85576 -0.806152,1.25264 -0.24805,0.39687 -0.454756,0.74414 -0.620117,1.0418 -0.165368,0.29765 -0.272854,0.47955 -0.322461,0.5457 -0.03308,0.13229 -0.08268,0.22737 -0.148828,0.28525 -0.06615,0.0579 -0.173635,0.0868 -0.322461,0.0868 -0.248049,0 -0.541571,-0.0951 -0.880567,-0.28526 -0.338998,-0.19017 -0.682129,-0.44235 -1.029394,-0.75654 -0.347266,-0.31419 -0.690397,-0.65732 -1.029395,-1.02939 -0.338996,-0.37207 -0.632518,-0.74828 -0.880566,-1.12862 -0.13229,-0.18189 -0.214972,-0.3886 -0.248047,-0.62011 -0.03307,-0.23151 -0.04961,-0.51263 -0.04961,-0.84336 2e-6,-1.0914 0.132293,-2.32337 0.396875,-3.6959 0.264584,-1.37252 0.636654,-2.81532 1.116211,-4.32842 0.479557,-1.51307 1.054198,-3.07577 1.723925,-4.68808 0.669725,-1.61229 1.409731,-3.20806 2.22002,-4.78731 0.810282,-1.57921 1.686714,-3.12123 2.629297,-4.62607 0.942571,-1.50479 1.918221,-2.91039 2.926953,-4.2168 1.008714,-1.30635 2.042241,-2.48044 3.100586,-3.52227 1.05832,-1.04176 2.12492,-1.89339 3.199804,-2.55488 0.165349,-0.0992 0.318312,-0.16533 0.458887,-0.19844 0.140544,-0.033 0.260433,-0.0496 0.359668,-0.0496 0.198421,4e-5 0.479541,0.11166 0.843359,0.33487 0.363785,0.22328 0.748257,0.49199 1.153418,0.80615 0.405125,0.31423 0.785463,0.62842 1.141016,0.94258 0.355514,0.31422 0.615963,0.57054 0.781348,0.76894 0.0992,0.14886 0.148808,0.36384 0.148828,0.64493 -2e-5,1.09143 -0.363822,2.45156 -1.091407,4.08037 -0.727622,1.62886 -1.752881,3.42307 -3.075781,5.38261 -1.322931,1.95959 -2.922832,4.03905 -4.799707,6.23838 -1.876897,2.19937 -3.964623,4.40698 -6.263183,6.62285 -0.248052,0.84337 -0.48783,1.6826 -0.719336,2.51768 -0.231515,0.8351 -0.446488,1.67432 -0.644922,2.51768 1.554422,-2.23242 2.931081,-3.99768 4.12998,-5.29581 1.198885,-1.2981 2.228278,-2.28201 3.088184,-2.95175 0.859884,-0.66972 1.558549,-1.09966 2.095996,-1.28985 0.537422,-0.19015 0.913626,-0.28524 1.128613,-0.28525 0.198424,1e-5 0.434068,0.10337 0.706934,0.31006 0.272836,0.20672 0.533285,0.4465 0.781348,0.71933 0.248031,0.27287 0.471273,0.53745 0.669726,0.79375 0.198421,0.25633 0.330713,0.44237 0.396875,0.55811 0.01652,0.16538 -0.157113,0.50024 -0.520898,1.00459 -0.363818,0.50437 -0.86818,1.08728 -1.513086,1.74873 -0.644936,0.66147 -1.409746,1.36013 -2.294434,2.096 -0.884712,0.73587 -1.847959,1.418 -2.889746,2.04638 0.529157,0.76068 0.983909,1.356 1.364258,1.78594 0.380327,0.42995 0.702788,0.75241 0.967383,0.96738 0.297644,0.24805 0.553959,0.40515 0.768945,0.47129 z m -2.654102,-20.01738 c -0.496103,0.99221 -1.004598,2.09188 -1.525488,3.29902 -0.520906,1.20718 -1.03767,2.48876 -1.550293,3.84473 1.835539,-2.08358 3.402366,-4.01834 4.700489,-5.8043 1.298099,-1.78591 2.364699,-3.40235 3.199804,-4.84931 0.835076,-1.44692 1.44279,-2.72436 1.823145,-3.83233 0.380321,-1.10791 0.57049,-2.03395 0.570507,-2.77812 -1.7e-5,-0.0496 -0.0042,-0.10332 -0.0124,-0.16123 -0.0083,-0.0579 -0.05376,-0.0868 -0.136426,-0.0868 -0.198454,3e-5 -0.520914,0.23154 -0.967382,0.69453 -0.4465,0.46305 -0.983935,1.14105 -1.612305,2.03399 -0.628399,0.89299 -1.327064,1.98026 -2.095996,3.26181 -0.768957,1.2816 -1.56684,2.74094 -2.393653,4.37803 z"
         id="path3004"
         style="font-family:Yesteryear;-inkscape-font-specification:Yesteryear" />
      <path
         d="m 87.745946,154.58645 c -1.521369,1.48828 -2.955905,2.73678 -4.303613,3.7455 -1.347732,1.00873 -2.63344,1.81902 -3.857129,2.43086 -1.223705,0.61185 -2.393658,1.05007 -3.509863,1.31465 -1.116215,0.26458 -2.203486,0.39688 -3.261817,0.39688 -0.446485,0 -0.942578,-0.16537 -1.488281,-0.4961 -0.545702,-0.33073 -1.054198,-0.73173 -1.525488,-1.20302 -0.471287,-0.47129 -0.864027,-0.96325 -1.178223,-1.47588 -0.314189,-0.51263 -0.471285,-0.95085 -0.471289,-1.31465 4e-6,-1.35599 0.186039,-2.60035 0.558106,-3.73311 0.372072,-1.13274 0.864032,-2.15386 1.475878,-3.06337 0.61185,-0.9095 1.310515,-1.71152 2.095996,-2.40606 0.785481,-0.69452 1.604035,-1.27329 2.455664,-1.73633 0.851624,-0.463 1.699117,-0.81027 2.542481,-1.04179 0.843353,-0.2315 1.620566,-0.34726 2.331641,-0.34727 0.512621,1e-5 1.021117,0.14884 1.525488,0.44648 0.504352,0.29767 0.963238,0.66148 1.37666,1.09141 0.4134,0.42996 0.748263,0.88058 1.00459,1.35186 0.256303,0.4713 0.38446,0.88057 0.384472,1.22783 -1.2e-5,0.56225 -0.235656,1.13689 -0.706933,1.72392 -0.4713,0.58706 -1.136892,1.1865 -1.996778,1.79834 -0.859904,0.61186 -1.893432,1.23611 -3.100585,1.87276 -1.207167,0.63666 -2.538351,1.27744 -3.993555,1.92236 -0.04961,0.39688 -0.07442,0.78549 -0.07441,1.16582 -2e-6,0.51263 0.111619,0.8599 0.334863,1.0418 0.223239,0.1819 0.640785,0.27285 1.252637,0.27285 1.091401,0 2.120795,-0.1819 3.088183,-0.5457 0.967375,-0.3638 1.89755,-0.83509 2.790528,-1.41387 0.892958,-0.57877 1.752853,-1.24023 2.579687,-1.98438 0.82681,-0.74413 1.645364,-1.49654 2.455664,-2.25722 z m -8.73125,-6.20117 c -0.330736,1e-5 -0.694538,0.17777 -1.091406,0.5333 -0.396881,0.35554 -0.793756,0.8227 -1.190625,1.40146 -0.39688,0.57879 -0.777218,1.24438 -1.141016,1.99678 -0.363805,0.75241 -0.677998,1.53376 -0.942578,2.34404 0.611845,-0.39687 1.211291,-0.81855 1.79834,-1.26504 0.587039,-0.44647 1.112071,-0.91363 1.575098,-1.40146 0.463014,-0.48782 0.835083,-0.98805 1.11621,-1.50069 0.281113,-0.51262 0.421672,-1.02525 0.42168,-1.53789 -8e-6,-0.14881 -0.04548,-0.2811 -0.136426,-0.39687 -0.09096,-0.11574 -0.227383,-0.17362 -0.409277,-0.17363 z"
         id="path3006"
         style="font-family:Yesteryear;-inkscape-font-specification:Yesteryear" />
      <path
         d="m 88.936573,162.05266 c -0.281121,0 -0.649057,-0.12816 -1.103809,-0.38447 -0.454752,-0.25632 -0.897102,-0.57051 -1.327051,-0.94258 -0.429946,-0.37207 -0.802016,-0.75654 -1.116211,-1.15342 -0.31419,-0.39687 -0.471286,-0.73587 -0.471289,-1.01699 3e-6,-0.49609 0.136429,-1.28157 0.409278,-2.35645 0.272853,-1.07486 0.632521,-2.30269 1.079004,-3.68349 0.446485,-1.38079 0.95498,-2.85667 1.525488,-4.42764 0.570507,-1.57095 1.145148,-3.10884 1.723926,-4.61367 l -3.497461,0 -0.02481,0 c -0.01654,1e-5 -0.0248,-0.0165 -0.02481,-0.0496 2e-6,-0.0992 0.03721,-0.2439 0.111621,-0.43408 0.07442,-0.19016 0.165366,-0.38859 0.272852,-0.59532 0.107488,-0.20668 0.231511,-0.39685 0.37207,-0.5705 0.140561,-0.17362 0.276986,-0.28524 0.409278,-0.33487 l 3.224609,-0.14883 c 0.463017,-1.12445 0.905367,-2.16212 1.327051,-3.11298 0.421675,-0.95083 0.797879,-1.76525 1.128613,-2.44327 0.08268,-0.18187 0.169493,-0.37617 0.260449,-0.58291 0.09095,-0.20668 0.223237,-0.41338 0.396875,-0.62011 0.173627,-0.20668 0.405137,-0.42166 0.694531,-0.64492 0.289381,-0.22322 0.682122,-0.4506 1.178223,-0.68213 0.363794,-0.18188 0.806144,-0.38031 1.327051,-0.59532 0.520889,-0.21494 1.033518,-0.41338 1.53789,-0.59531 0.504351,-0.18187 0.963237,-0.33483 1.376661,-0.45889 0.413398,-0.12399 0.711058,-0.186 0.892968,-0.18603 0.16535,3e-5 0.24803,0.0331 0.24805,0.0992 l 0,0.0496 c -2e-5,0.0166 -0.0166,0.0579 -0.0496,0.12402 -0.0992,0.16539 -0.28113,0.52506 -0.54571,1.079 -0.26459,0.554 -0.591186,1.24853 -0.97978,2.0836 -0.388618,0.83511 -0.818566,1.78596 -1.289844,2.85254 -0.471299,1.06662 -0.95499,2.19523 -1.451074,3.38584 l 5.953128,-0.22324 c 0.16535,2e-5 0.21496,0.0992 0.14882,0.29765 -0.0662,0.19846 -0.19018,0.42997 -0.37207,0.69453 -0.18191,0.2646 -0.39275,0.53746 -0.63252,0.81856 -0.23979,0.28113 -0.44236,0.49611 -0.60771,0.64492 -0.0331,0.0331 -0.0992,0.0662 -0.19844,0.0992 -0.0992,0.0331 -0.22325,0.0496 -0.37207,0.0496 l -4.911326,0 c -0.59532,1.43869 -1.165827,2.89389 -1.711523,4.36562 -0.545709,1.47176 -1.033534,2.86909 -1.463477,4.19199 -0.429952,1.32293 -0.773083,2.53836 -1.029394,3.64629 -0.256319,1.10795 -0.384476,2.01745 -0.384473,2.72852 -3e-6,0.0992 0.04961,0.14883 0.148828,0.14883 0.181898,0 0.454749,-0.10335 0.818555,-0.31006 0.363797,-0.2067 0.773074,-0.47542 1.227832,-0.80615 0.454746,-0.33073 0.938437,-0.69453 1.451074,-1.09141 0.512623,-0.39687 1.000448,-0.78961 1.463477,-1.17822 0.463011,-0.3886 0.880557,-0.74414 1.252636,-1.0666 0.37206,-0.32246 0.657314,-0.56637 0.855762,-0.73174 0.148817,0.14883 0.326584,0.339 0.533301,0.57051 0.206694,0.23151 0.400997,0.44649 0.58291,0.64492 -0.363814,0.36381 -0.818566,0.80615 -1.364258,1.32705 -0.545713,0.5209 -1.136891,1.0542 -1.773535,1.5999 -0.636662,0.54571 -1.298119,1.09141 -1.984375,1.63711 -0.686269,0.5457 -1.355995,1.03353 -2.00918,1.46348 -0.653194,0.42994 -1.260908,0.77721 -1.823144,1.04179 -0.562242,0.26459 -1.03353,0.39688 -1.413867,0.39688 z"
         id="path3008"
         style="font-family:Yesteryear;-inkscape-font-specification:Yesteryear" />
    </g>
  </g>
</svg>
