<?xml version="1.0" encoding="UTF-8" standalone="no"?>
<!-- Created with Inkscape (http://www.inkscape.org/) -->

<svg
   xmlns:dc="http://purl.org/dc/elements/1.1/"
   xmlns:cc="http://creativecommons.org/ns#"
   xmlns:rdf="http://www.w3.org/1999/02/22-rdf-syntax-ns#"
   xmlns:svg="http://www.w3.org/2000/svg"
   xmlns="http://www.w3.org/2000/svg"
   version="1.1"
   width="404.19568"
   height="220.73187"
   viewBox="0 0 114.07301 62.295442"
   id="svg8">
  <defs
     id="defs2" />
  <metadata
     id="metadata5">
    <rdf:RDF>
      <cc:Work
         rdf:about="">
        <dc:format>image/svg+xml</dc:format>
        <dc:type
           rdf:resource="http://purl.org/dc/dcmitype/StillImage" />
        <dc:title></dc:title>
      </cc:Work>
    </rdf:RDF>
  </metadata>
  <g
     transform="translate(-25.245786,-104.18055)"
     id="layer1">
    <g
       transform="matrix(0.95751525,-0.2305558,0.27966757,0.97702989,0,0)"
       id="text12"
       style="font-size:50.79999924px;font-style:normal;font-variant:normal;font-weight:normal;font-stretch:normal;line-height:1.25;letter-spacing:0px;word-spacing:0px;fill:#000000;fill-opacity:1;stroke:none;font-family:Yesteryear;-inkscape-font-specification:Yesteryear">
      <path
         d="m 20.260545,128.66567 c 0.02038,0.7927 -0.27141,1.67965 -0.875353,2.66085 -0.604014,0.98127 -1.385681,1.97505 -2.345001,2.98136 -0.959387,1.00636 -2.031083,1.99062 -3.215091,2.95278 -1.184069,0.96221 -2.354003,1.82904 -3.509808,2.60049 -0.9606729,0.6346 -1.8854669,1.21461 -2.7743846,1.74002 -0.8889648,0.52546 -1.7207294,1.0206 -2.495296,1.48542 -0.7746089,0.46486 -1.4793955,0.90737 -2.1143627,1.32751 -0.6350048,0.42019 -1.1871401,0.84248 -1.656408,1.26689 1.1970261,0.18594 2.2615726,0.37093 3.1936427,0.55497 0.9320291,0.18408 1.6747242,0.40989 2.228087,0.67743 0.4043782,0.27117 0.8205615,0.67835 1.2485516,1.22157 0.4279418,0.54324 0.8148548,1.09985 1.1607397,1.66983 0.3458346,0.57001 0.6282542,1.08784 0.8472597,1.55348 0.2189536,0.46566 0.3297186,0.74802 0.3322966,0.8471 0.01868,0.72661 -0.147717,1.499 -0.4992028,2.31716 -0.3515379,0.81817 -0.8438212,1.63559 -1.4768517,2.45228 -0.6330789,0.8167 -1.3909939,1.60749 -2.2737472,2.37238 -0.8827973,0.76489 -1.8501241,1.46159 -2.9019829,2.0901 -1.0518973,0.62851 -2.16817224,1.1677 -3.34882828,1.61756 -1.18068762,0.44985 -2.38162902,0.75562 -3.60282792,0.91728 -0.5576049,-0.4327 -1.0993928,-0.89469 -1.6253654,-1.38598 -0.5259937,-0.49128 -1.0014801,-0.95075 -1.4264604,-1.37838 -0.4249984,-0.42763 -0.7823042,-0.79906 -1.0719181,-1.11429 -0.2896298,-0.31523 -0.468602,-0.51333 -0.536916,-0.59431 -0.5719521,0.93916 -1.1542972,1.79593 -1.7470373,2.57035 -0.592751,0.77442 -1.184443,1.429 -1.775076,1.96376 -0.590641,0.53476 -1.184468,0.94567 -1.781481,1.23273 -0.597018,0.28706 -1.19383,0.42126 -1.790438,0.40261 -0.248657,-0.0105 -0.50761,-0.0993 -0.776856,-0.2663 -0.269246,-0.167 -0.531387,-0.37962 -0.786424,-0.63785 -0.255036,-0.25823 -0.498298,-0.54154 -0.729788,-0.8499 -0.231487,-0.30837 -0.437833,-0.60496 -0.61904,-0.88976 -0.181202,-0.2848 -0.324533,-0.54572 -0.429995,-0.78278 -0.105461,-0.23705 -0.159461,-0.40511 -0.162016,-0.5042 -0.04465,-1.73395 0.273813,-3.67495 0.955378,-5.82301 0.681569,-2.14804 1.630141,-4.3769 2.845719,-6.68657 1.215576,-2.30965 2.66273,-4.62902 4.341467,-6.95814 1.6787262,-2.32907 3.4929315,-4.54164 5.4426205,-6.63771 0.6007085,-2.39393 1.0790125,-4.71884 1.4349129,-6.97474 0.3558768,-2.25582 0.526344,-4.31719 0.5114025,-6.18409 1.1070932,0.55167 1.9987451,1.0961 2.67495861,1.63329 0.67618331,0.53728 1.21012202,1.01599 1.6018178,1.43612 0.44343509,0.50159 0.77040709,0.98115 0.98091739,1.43872 0.1069294,0.29488 0.1674194,0.71479 0.1814701,1.25971 0.00254,0.0992 0.00105,0.20242 -0.00444,0.30994 -0.00553,0.10757 -0.01507,0.21933 -0.028624,0.3353 2.2742941,-1.70726 4.5448054,-3.07985 6.8115405,-4.11778 2.2666857,-1.03784 4.4508917,-1.58215 6.5526237,-1.63291 0.26475,-0.006 0.573455,0.0854 0.926115,0.27509 0.352596,0.18982 0.711062,0.44555 1.0754,0.7672 0.364271,0.32173 0.729533,0.68057 1.095785,1.07654 0.366184,0.39604 0.691242,0.8013 0.975177,1.21577 0.283864,0.41455 0.513554,0.81385 0.689071,1.19789 0.175445,0.38412 0.266801,0.71653 0.274066,0.99722 z m -23.0483739,18.40225 c -0.8192689,2.26706 -1.70239,4.46541 -2.6493658,6.59508 -0.9469968,2.12968 -1.9447016,4.05815 -2.993117,5.78543 1.8823059,-0.21066 3.6293587,-0.52959 5.2411633,-0.95681 1.6117787,-0.42722 3.06306112,-0.97862 4.3538512,-1.65421 1.2907559,-0.67558 2.4163507,-1.4959 3.3767877,-2.46096 0.960396,-0.96505 1.7386605,-2.09094 2.3347957,-3.37768 -0.3356771,-0.17367 -0.6998663,-0.33011 -1.092569,-0.46937 -0.3927464,-0.13923 -0.8057317,-0.26145 -1.2389571,-0.36667 -0.4332668,-0.10521 -0.8703311,-0.19793 -1.3111943,-0.27818 -0.4409009,-0.0802 -0.8692668,-0.15665 -1.2850955,-0.22924 -0.96410203,-0.14196 -1.96043358,-0.25012 -2.9889972,-0.32445 -0.2325499,-0.0275 -0.5078457,-0.26864 -0.8258915,-0.72366 -0.3180738,-0.45497 -0.6252105,-0.96807 -0.9214105,-1.53928 z m 3.56944817,-11.85956 c -0.25498214,1.03068 -0.53773874,2.10743 -0.84827015,3.23028 -0.3105636,1.12289 -0.64911461,2.28362 -1.01565462,3.48217 1.45833713,-1.24143 3.0300947,-2.41951 4.7152774,-3.53427 1.6851432,-1.11471 3.3573631,-2.24979 5.0166643,-3.40524 1.6592518,-1.15539 3.2255958,-2.38292 4.6990388,-3.6826 1.473383,-1.29962 2.727302,-2.76334 3.761761,-4.39117 0.06403,-0.0842 0.09044,-0.18392 0.07923,-0.29935 -0.01128,-0.11536 -0.05139,-0.22593 -0.120315,-0.33171 -0.06899,-0.10571 -0.158213,-0.19444 -0.26766,-0.26618 -0.109515,-0.0717 -0.238724,-0.10575 -0.387632,-0.10219 -0.926766,0.0224 -1.984394,0.26687 -3.172885,0.73341 -1.188551,0.4666 -2.459488,1.10867 -3.8128159,1.92619 -1.3533793,0.81758 -2.7647513,1.79352 -4.2341206,2.92779 -1.4694117,1.13434 -2.9402816,2.37197 -4.41261423,3.71287 z M -15.594614,160.95979 c 0.148939,-0.004 0.363427,-0.19467 0.643465,-0.57322 0.280036,-0.37855 0.605892,-0.90693 0.977569,-1.58512 0.371673,-0.6782 0.781106,-1.49775 1.2283,-2.45868 0.447187,-0.96092 0.912512,-2.02144 1.395976,-3.18153 0.483456,-1.16008 0.977095,-2.40717 1.4809191,-3.74127 0.5038111,-1.33407 1.0022162,-2.7176 1.4952162,-4.15058 -0.9444961,1.26211 -1.8307443,2.53521 -2.6587473,3.81926 -0.828014,1.28409 -1.569247,2.56194 -2.223703,3.83356 -0.65446,1.27163 -1.209945,2.52846 -1.666454,3.77052 -0.456512,1.24206 -0.785725,2.44388 -0.987642,3.60543 -0.04369,0.23239 -0.02693,0.40136 0.05031,0.50691 0.07723,0.10553 0.165497,0.15711 0.26479,0.15472 z"
         id="path2985"
         style="font-family:Yesteryear;-inkscape-font-specification:Yesteryear" />
      <path
         d="m 26.75122,158.50559 c -1.3e-5,0.0992 0.0496,0.14883 0.148828,0.14883 0.148815,0 0.396862,-0.10749 0.744141,-0.32247 0.347251,-0.21497 0.744126,-0.48782 1.190625,-0.81855 0.446469,-0.33073 0.921892,-0.7028 1.426269,-1.11621 0.504346,-0.41341 0.988036,-0.81855 1.451075,-1.21543 0.463002,-0.39687 0.880547,-0.76067 1.252636,-1.09141 0.372051,-0.33072 0.657305,-0.58703 0.855762,-0.76894 0.148808,0.14883 0.334843,0.34727 0.558105,0.59531 0.223222,0.24805 0.425793,0.4713 0.607715,0.66973 -0.396895,0.36381 -0.872318,0.80615 -1.426269,1.32705 -0.553991,0.5209 -1.149303,1.06247 -1.785938,1.62471 -0.636671,0.56224 -1.293994,1.12034 -1.971972,1.67431 -0.67801,0.55397 -1.339468,1.04593 -1.984375,1.47588 -0.644935,0.42995 -1.256784,0.78135 -1.835547,1.0542 -0.578788,0.27285 -1.083149,0.40928 -1.513086,0.40928 -0.297667,0 -0.624261,-0.0579 -0.979785,-0.17364 -0.355543,-0.11575 -0.682138,-0.27698 -0.979785,-0.48369 -0.297665,-0.2067 -0.545711,-0.45062 -0.744141,-0.73174 -0.198445,-0.28112 -0.297664,-0.59531 -0.297656,-0.94257 -8e-6,-0.13229 -0.0041,-0.29352 -0.0124,-0.4837 -0.0083,-0.19016 0.0041,-0.43821 0.03721,-0.74414 0.03307,-0.30592 0.09921,-0.67799 0.198438,-1.11621 0.09921,-0.43821 0.248039,-0.97978 0.446484,-1.6247 -0.54571,0.57878 -1.186498,1.18236 -1.922363,1.81074 -0.735878,0.62839 -1.508956,1.2237 -2.319238,1.78594 -0.81029,0.56224 -1.62471,1.07073 -2.443262,1.52548 -0.818555,0.45476 -1.575097,0.79789 -2.269629,1.0294 -0.08268,0.0331 -0.148827,0.0496 -0.198437,0.0496 -0.04961,0 -0.09922,0 -0.148828,0 -0.165364,0 -0.384471,-0.0827 -0.657325,-0.24805 -0.272849,-0.16536 -0.541566,-0.38447 -0.806152,-0.65732 -0.26458,-0.27285 -0.491956,-0.58291 -0.682129,-0.93018 -0.190166,-0.34726 -0.28525,-0.69453 -0.285254,-1.0418 4e-6,-0.0992 0.04961,-0.42994 0.148828,-0.99218 0.09922,-0.56224 0.334867,-1.27744 0.706934,-2.14561 0.372073,-0.86816 0.921909,-1.84381 1.649512,-2.92695 0.727604,-1.08313 1.719791,-2.19521 2.976562,-3.33623 0.644919,-0.57877 1.33945,-1.12447 2.083594,-1.63711 0.628381,-0.42994 1.347716,-0.86815 2.158008,-1.31465 0.810279,-0.44647 1.661906,-0.802 2.554882,-1.0666 0.03307,1e-5 0.062,-0.008 0.08682,-0.0248 0.0248,-0.0165 0.062,-0.008 0.111621,0.0248 0.198428,0.0662 0.434073,0.16951 0.706934,0.31006 0.272841,0.14057 0.545692,0.2894 0.818554,0.44648 0.272841,0.15711 0.512619,0.31421 0.719336,0.47129 0.206694,0.15711 0.34312,0.28527 0.409277,0.38447 0.01653,0.0331 0.01653,0.0579 0,0.0744 l -0.04961,0.0496 c -0.744151,0.39688 -1.44695,0.83923 -2.108398,1.32705 -0.661467,0.48783 -1.248511,0.94672 -1.761133,1.37666 -0.59532,0.51264 -1.14929,1.017 -1.661914,1.51308 -1.207166,1.19064 -2.042257,2.22003 -2.505274,3.08819 -0.463023,0.86817 -0.694534,1.49242 -0.694531,1.87275 -3e-6,0.28112 0.115753,0.42168 0.347266,0.42168 0.231507,0 0.525029,-0.0951 0.880566,-0.28525 0.35553,-0.19017 0.756538,-0.44648 1.203028,-0.76895 0.446478,-0.32245 0.938437,-0.70279 1.475878,-1.14101 0.537428,-0.43821 1.095533,-0.8971 1.674317,-1.37666 0.512621,-0.41341 1.008714,-0.85989 1.488281,-1.33946 0.413401,-0.39686 0.843349,-0.85162 1.289844,-1.36426 0.446473,-0.51262 0.826811,-1.03351 1.141015,-1.56269 -1.2e-5,-0.0165 0.0083,-0.0331 0.02481,-0.0496 0.01652,-0.0165 0.04133,-0.0165 0.07441,0 0.181889,0.1323 0.388594,0.35141 0.620117,0.65732 0.231497,0.30594 0.446471,0.6408 0.644922,1.00459 0.198424,0.36382 0.367922,0.71522 0.508496,1.0542 0.140546,0.33901 0.210826,0.59946 0.21084,0.78135 -0.380352,0.77722 -0.673874,1.48415 -0.880566,2.1208 -0.206719,0.63666 -0.363816,1.19477 -0.471289,1.67432 -0.1075,0.47956 -0.173646,0.88884 -0.198438,1.22783 -0.02482,0.339 -0.03722,0.59945 -0.03721,0.78135 z"
         id="path2987"
         style="font-family:Yesteryear;-inkscape-font-specification:Yesteryear" />
      <path
         d="m 33.349266,153.84231 c 0.38034,-0.3638 0.814422,-0.77721 1.302247,-1.24024 0.487825,-0.46301 0.97565,-0.96737 1.463476,-1.51308 0.487824,-0.5457 0.942576,-1.13274 1.364258,-1.76114 0.421677,-0.62837 0.75654,-1.30636 1.00459,-2.03398 0.06614,-0.38033 0.169495,-0.78133 0.310058,-1.20303 0.140556,-0.42166 0.297652,-0.80614 0.471289,-1.15342 0.173629,-0.34725 0.343127,-0.63663 0.508496,-0.86816 0.16536,-0.23149 0.314188,-0.34725 0.446485,-0.34727 0.198432,0.11578 0.496088,0.33488 0.892969,0.65733 0.396868,0.32248 0.793743,0.66561 1.190625,1.02939 0.396867,0.36382 0.748266,0.69868 1.054199,1.00459 0.305916,0.30594 0.458878,0.49198 0.458886,0.55811 -0.198446,0.76069 -0.29353,1.44695 -0.285253,2.05879 0.0083,0.61186 0.05787,1.21544 0.148828,1.81074 0.09094,0.59532 0.19016,1.22784 0.297656,1.89756 0.107478,0.66973 0.161221,1.44281 0.16123,2.31924 -9e-6,0.52917 -0.08682,1.13688 -0.260449,1.82314 -0.173641,0.68627 -0.475431,1.30225 -0.905371,1.84795 0.843351,-0.49609 1.678441,-1.0542 2.505273,-1.67432 0.826812,-0.62011 1.562684,-1.20302 2.207618,-1.74873 0.760663,-0.64491 1.488267,-1.28983 2.182812,-1.93476 l 1.116211,1.21543 c -0.545719,0.51263 -1.136896,1.05834 -1.773535,1.63711 -0.636667,0.57878 -1.298125,1.14928 -1.984375,1.71152 -0.686275,0.56224 -1.384939,1.09968 -2.095996,1.6123 -0.711077,0.51264 -1.413876,0.96739 -2.108399,1.36426 -0.694538,0.39688 -1.364264,0.71107 -2.009179,0.94258 -0.644927,0.23151 -1.248508,0.34726 -1.810742,0.34727 -0.479561,-1e-5 -1.008728,-0.11576 -1.5875,-0.34727 -0.578778,-0.23151 -1.124481,-0.51263 -1.63711,-0.84336 -0.51263,-0.33073 -0.959114,-0.67799 -1.339453,-1.0418 -0.380338,-0.3638 -0.60358,-0.66972 -0.669726,-0.91777 1e-6,-0.0331 0.03307,-0.10335 0.09922,-0.21084 0.06615,-0.10748 0.144695,-0.2191 0.235645,-0.33486 0.09095,-0.11576 0.181901,-0.21911 0.272851,-0.31006 0.09095,-0.0909 0.161231,-0.13642 0.21084,-0.13643 0.09922,1e-5 0.297656,0.0744 0.595313,0.22325 0.297655,0.14883 0.793749,0.22324 1.488281,0.22324 0.380336,0 0.706931,-0.0992 0.979785,-0.29766 0.272849,-0.19843 0.500225,-0.46302 0.682129,-0.79375 0.181897,-0.33072 0.314189,-0.71106 0.396875,-1.14101 0.08268,-0.42995 0.124019,-0.8847 0.124023,-1.36426 -4e-6,-0.69453 -0.03308,-1.36839 -0.09922,-2.02158 -0.06615,-0.65319 -0.140564,-1.2857 -0.223242,-1.89756 -0.281124,0.33074 -0.603584,0.678 -0.967383,1.04179 -0.363805,0.36381 -0.731741,0.72348 -1.103809,1.07901 -0.372071,0.35554 -0.744141,0.7028 -1.116211,1.0418 -0.37207,0.339 -0.706933,0.64079 -1.00459,0.90537 l -1.190625,-1.21543 z"
         id="path2989"
         style="font-family:Yesteryear;-inkscape-font-specification:Yesteryear" />
      <path
         d="m 63.412549,158.20793 c 0.264571,0 0.599434,-0.0992 1.00459,-0.29765 0.405129,-0.19844 0.847479,-0.45062 1.327051,-0.75655 0.479542,-0.30592 0.971501,-0.64905 1.475878,-1.02939 0.504346,-0.38034 0.983903,-0.75241 1.438672,-1.11621 0.454735,-0.3638 0.864012,-0.7028 1.227832,-1.017 0.363783,-0.31418 0.644903,-0.55396 0.84336,-0.71933 0.148808,0.14883 0.326575,0.339 0.5333,0.57051 0.206686,0.23151 0.400989,0.44649 0.582911,0.64492 -0.363823,0.36381 -0.818575,0.80616 -1.364258,1.32705 -0.545722,0.5209 -1.1369,1.0542 -1.773535,1.5999 -0.636671,0.54571 -1.298129,1.09141 -1.984375,1.63711 -0.686278,0.54571 -1.356004,1.03353 -2.00918,1.46348 -0.653203,0.42995 -1.260917,0.77721 -1.823144,1.04179 -0.562251,0.26459 -1.03354,0.39688 -1.413868,0.39688 -0.644931,0 -1.227841,-0.12816 -1.74873,-0.38447 -0.520907,-0.25632 -0.992195,-0.58705 -1.413867,-0.99219 -0.421687,-0.40514 -0.814427,-0.86816 -1.178223,-1.38906 -0.363808,-0.5209 -0.702805,-1.0542 -1.016992,-1.59991 -0.281125,0.36381 -0.566378,0.76482 -0.855762,1.20303 -0.289392,0.43822 -0.558109,0.85576 -0.806152,1.25264 -0.24805,0.39687 -0.454756,0.74414 -0.620117,1.0418 -0.165368,0.29765 -0.272854,0.47955 -0.322461,0.5457 -0.03308,0.13229 -0.08268,0.22737 -0.148828,0.28525 -0.06615,0.0579 -0.173635,0.0868 -0.322461,0.0868 -0.248049,0 -0.541571,-0.0951 -0.880567,-0.28526 -0.338998,-0.19017 -0.682129,-0.44235 -1.029394,-0.75654 -0.347266,-0.31419 -0.690397,-0.65732 -1.029395,-1.02939 -0.338996,-0.37207 -0.632518,-0.74828 -0.880566,-1.12862 -0.13229,-0.18189 -0.214972,-0.3886 -0.248047,-0.62011 -0.03307,-0.23151 -0.04961,-0.51263 -0.04961,-0.84336 2e-6,-1.0914 0.132293,-2.32337 0.396875,-3.6959 0.264584,-1.37252 0.636654,-2.81532 1.116211,-4.32842 0.479557,-1.51307 1.054198,-3.07577 1.723925,-4.68808 0.669725,-1.61229 1.409731,-3.20806 2.22002,-4.78731 0.810282,-1.57921 1.686714,-3.12123 2.629297,-4.62607 0.942571,-1.50479 1.918221,-2.91039 2.926953,-4.2168 1.008714,-1.30635 2.042241,-2.48044 3.100586,-3.52227 1.05832,-1.04176 2.12492,-1.89339 3.199804,-2.55488 0.165349,-0.0992 0.318312,-0.16533 0.458887,-0.19844 0.140544,-0.033 0.260433,-0.0496 0.359668,-0.0496 0.198421,4e-5 0.479541,0.11166 0.843359,0.33487 0.363785,0.22328 0.748257,0.49199 1.153418,0.80615 0.405125,0.31423 0.785463,0.62842 1.141016,0.94258 0.355514,0.31422 0.615963,0.57054 0.781348,0.76894 0.0992,0.14886 0.148808,0.36384 0.148828,0.64493 -2e-5,1.09143 -0.363822,2.45156 -1.091407,4.08037 -0.727622,1.62886 -1.752881,3.42307 -3.075781,5.38261 -1.322931,1.95959 -2.922832,4.03905 -4.799707,6.23838 -1.876897,2.19937 -3.964623,4.40698 -6.263183,6.62285 -0.248052,0.84337 -0.48783,1.6826 -0.719336,2.51768 -0.231515,0.8351 -0.446488,1.67432 -0.644922,2.51768 1.554422,-2.23242 2.931081,-3.99768 4.12998,-5.29581 1.198885,-1.2981 2.228278,-2.28201 3.088184,-2.95175 0.859884,-0.66972 1.558549,-1.09966 2.095996,-1.28985 0.537422,-0.19015 0.913626,-0.28524 1.128613,-0.28525 0.198424,1e-5 0.434068,0.10337 0.706934,0.31006 0.272836,0.20672 0.533285,0.4465 0.781348,0.71933 0.248031,0.27287 0.471273,0.53745 0.669726,0.79375 0.198421,0.25633 0.330713,0.44237 0.396875,0.55811 0.01652,0.16538 -0.157113,0.50024 -0.520898,1.00459 -0.363818,0.50437 -0.86818,1.08728 -1.513086,1.74873 -0.644936,0.66147 -1.409746,1.36013 -2.294434,2.096 -0.884712,0.73587 -1.847959,1.418 -2.889746,2.04638 0.529157,0.76068 0.983909,1.356 1.364258,1.78594 0.380327,0.42995 0.702788,0.75241 0.967383,0.96738 0.297644,0.24805 0.553959,0.40515 0.768945,0.47129 z m -2.654102,-20.01738 c -0.496103,0.99221 -1.004598,2.09188 -1.525488,3.29902 -0.520906,1.20718 -1.03767,2.48876 -1.550293,3.84473 1.835539,-2.08358 3.402366,-4.01834 4.700489,-5.8043 1.298099,-1.78591 2.364699,-3.40235 3.199804,-4.84931 0.835076,-1.44692 1.44279,-2.72436 1.823145,-3.83233 0.380321,-1.10791 0.57049,-2.03395 0.570507,-2.77812 -1.7e-5,-0.0496 -0.0042,-0.10332 -0.0124,-0.16123 -0.0083,-0.0579 -0.05376,-0.0868 -0.136426,-0.0868 -0.198454,3e-5 -0.520914,0.23154 -0.967382,0.69453 -0.4465,0.46305 -0.983935,1.14105 -1.612305,2.03399 -0.628399,0.89299 -1.327064,1.98026 -2.095996,3.26181 -0.768957,1.2816 -1.56684,2.74094 -2.393653,4.37803 z"
         id="path2991"
         style="font-family:Yesteryear;-inkscape-font-specification:Yesteryear" />
      <path
         d="m 87.745946,154.58645 c -1.521369,1.48828 -2.955905,2.73678 -4.303613,3.7455 -1.347732,1.00873 -2.63344,1.81902 -3.857129,2.43086 -1.223705,0.61185 -2.393658,1.05007 -3.509863,1.31465 -1.116215,0.26458 -2.203486,0.39688 -3.261817,0.39688 -0.446485,0 -0.942578,-0.16537 -1.488281,-0.4961 -0.545702,-0.33073 -1.054198,-0.73173 -1.525488,-1.20302 -0.471287,-0.47129 -0.864027,-0.96325 -1.178223,-1.47588 -0.314189,-0.51263 -0.471285,-0.95085 -0.471289,-1.31465 4e-6,-1.35599 0.186039,-2.60035 0.558106,-3.73311 0.372072,-1.13274 0.864032,-2.15386 1.475878,-3.06337 0.61185,-0.9095 1.310515,-1.71152 2.095996,-2.40606 0.785481,-0.69452 1.604035,-1.27329 2.455664,-1.73633 0.851624,-0.463 1.699117,-0.81027 2.542481,-1.04179 0.843353,-0.2315 1.620566,-0.34726 2.331641,-0.34727 0.512621,1e-5 1.021117,0.14884 1.525488,0.44648 0.504352,0.29767 0.963238,0.66148 1.37666,1.09141 0.4134,0.42996 0.748263,0.88058 1.00459,1.35186 0.256303,0.4713 0.38446,0.88057 0.384472,1.22783 -1.2e-5,0.56225 -0.235656,1.13689 -0.706933,1.72392 -0.4713,0.58706 -1.136892,1.1865 -1.996778,1.79834 -0.859904,0.61186 -1.893432,1.23611 -3.100585,1.87276 -1.207167,0.63666 -2.538351,1.27744 -3.993555,1.92236 -0.04961,0.39688 -0.07442,0.78549 -0.07441,1.16582 -2e-6,0.51263 0.111619,0.8599 0.334863,1.0418 0.223239,0.1819 0.640785,0.27285 1.252637,0.27285 1.091401,0 2.120795,-0.1819 3.088183,-0.5457 0.967375,-0.3638 1.89755,-0.83509 2.790528,-1.41387 0.892958,-0.57877 1.752853,-1.24023 2.579687,-1.98438 0.82681,-0.74413 1.645364,-1.49654 2.455664,-2.25722 z m -8.73125,-6.20117 c -0.330736,1e-5 -0.694538,0.17777 -1.091406,0.5333 -0.396881,0.35554 -0.793756,0.8227 -1.190625,1.40146 -0.39688,0.57879 -0.777218,1.24438 -1.141016,1.99678 -0.363805,0.75241 -0.677998,1.53376 -0.942578,2.34404 0.611845,-0.39687 1.211291,-0.81855 1.79834,-1.26504 0.587039,-0.44647 1.112071,-0.91363 1.575098,-1.40146 0.463014,-0.48782 0.835083,-0.98805 1.11621,-1.50069 0.281113,-0.51262 0.421672,-1.02525 0.42168,-1.53789 -8e-6,-0.14881 -0.04548,-0.2811 -0.136426,-0.39687 -0.09096,-0.11574 -0.227383,-0.17362 -0.409277,-0.17363 z"
         id="path2993"
         style="font-family:Yesteryear;-inkscape-font-specification:Yesteryear" />
      <path
         d="m 88.936573,162.05266 c -0.281121,0 -0.649057,-0.12816 -1.103809,-0.38447 -0.454752,-0.25632 -0.897102,-0.57051 -1.327051,-0.94258 -0.429946,-0.37207 -0.802016,-0.75654 -1.116211,-1.15342 -0.31419,-0.39687 -0.471286,-0.73587 -0.471289,-1.01699 3e-6,-0.49609 0.136429,-1.28157 0.409278,-2.35645 0.272853,-1.07486 0.632521,-2.30269 1.079004,-3.68349 0.446485,-1.38079 0.95498,-2.85667 1.525488,-4.42764 0.570507,-1.57095 1.145148,-3.10884 1.723926,-4.61367 l -3.497461,0 -0.02481,0 c -0.01654,1e-5 -0.0248,-0.0165 -0.02481,-0.0496 2e-6,-0.0992 0.03721,-0.2439 0.111621,-0.43408 0.07442,-0.19016 0.165366,-0.38859 0.272852,-0.59532 0.107488,-0.20668 0.231511,-0.39685 0.37207,-0.5705 0.140561,-0.17362 0.276986,-0.28524 0.409278,-0.33487 l 3.224609,-0.14883 c 0.463017,-1.12445 0.905367,-2.16212 1.327051,-3.11298 0.421675,-0.95083 0.797879,-1.76525 1.128613,-2.44327 0.08268,-0.18187 0.169493,-0.37617 0.260449,-0.58291 0.09095,-0.20668 0.223237,-0.41338 0.396875,-0.62011 0.173627,-0.20668 0.405137,-0.42166 0.694531,-0.64492 0.289381,-0.22322 0.682122,-0.4506 1.178223,-0.68213 0.363794,-0.18188 0.806144,-0.38031 1.327051,-0.59532 0.520889,-0.21494 1.033518,-0.41338 1.53789,-0.59531 0.504351,-0.18187 0.963237,-0.33483 1.376661,-0.45889 0.413398,-0.12399 0.711058,-0.186 0.892968,-0.18603 0.16535,3e-5 0.24803,0.0331 0.24805,0.0992 l 0,0.0496 c -2e-5,0.0166 -0.0166,0.0579 -0.0496,0.12402 -0.0992,0.16539 -0.28113,0.52506 -0.54571,1.079 -0.26459,0.554 -0.591186,1.24853 -0.97978,2.0836 -0.388618,0.83511 -0.818566,1.78596 -1.289844,2.85254 -0.471299,1.06662 -0.95499,2.19523 -1.451074,3.38584 l 5.953128,-0.22324 c 0.16535,2e-5 0.21496,0.0992 0.14882,0.29765 -0.0662,0.19846 -0.19018,0.42997 -0.37207,0.69453 -0.18191,0.2646 -0.39275,0.53746 -0.63252,0.81856 -0.23979,0.28113 -0.44236,0.49611 -0.60771,0.64492 -0.0331,0.0331 -0.0992,0.0662 -0.19844,0.0992 -0.0992,0.0331 -0.22325,0.0496 -0.37207,0.0496 l -4.911326,0 c -0.59532,1.43869 -1.165827,2.89389 -1.711523,4.36562 -0.545709,1.47176 -1.033534,2.86909 -1.463477,4.19199 -0.429952,1.32293 -0.773083,2.53836 -1.029394,3.64629 -0.256319,1.10795 -0.384476,2.01745 -0.384473,2.72852 -3e-6,0.0992 0.04961,0.14883 0.148828,0.14883 0.181898,0 0.454749,-0.10335 0.818555,-0.31006 0.363797,-0.2067 0.773074,-0.47542 1.227832,-0.80615 0.454746,-0.33073 0.938437,-0.69453 1.451074,-1.09141 0.512623,-0.39687 1.000448,-0.78961 1.463477,-1.17822 0.463011,-0.3886 0.880557,-0.74414 1.252636,-1.0666 0.37206,-0.32246 0.657314,-0.56637 0.855762,-0.73174 0.148817,0.14883 0.326584,0.339 0.533301,0.57051 0.206694,0.23151 0.400997,0.44649 0.58291,0.64492 -0.363814,0.36381 -0.818566,0.80615 -1.364258,1.32705 -0.545713,0.5209 -1.136891,1.0542 -1.773535,1.5999 -0.636662,0.54571 -1.298119,1.09141 -1.984375,1.63711 -0.686269,0.5457 -1.355995,1.03353 -2.00918,1.46348 -0.653194,0.42994 -1.260908,0.77721 -1.823144,1.04179 -0.562242,0.26459 -1.03353,0.39688 -1.413867,0.39688 z"
         id="path2995"
         style="font-family:Yesteryear;-inkscape-font-specification:Yesteryear" />
    </g>
  </g>
</svg>
